<svg width="1440" height="724" viewBox="0 0 1440 724" fill="none" xmlns="http://www.w3.org/2000/svg">
<mask id="mask0" mask-type="alpha" maskUnits="userSpaceOnUse" x="0" y="0" width="1440" height="716">
<rect width="1440" height="716" transform="matrix(-1 0 0 1 1440 0)" fill="white"/>
</mask>
<g mask="url(#mask0)">
<g filter="url(#filter0_d)">
<rect width="1440" height="716" transform="matrix(-1 0 0 1 1440 0)" fill="white"/>
</g>
<g opacity="0.15" filter="url(#filter1_d)">
<circle r="399.5" transform="matrix(-1 0 0 1 1035 354)" stroke="#00ADEE"/>
<circle opacity="0.65" r="499.5" transform="matrix(-1 0 0 1 1035 354)" stroke="#00ADEE"/>
<circle opacity="0.55" r="599.5" transform="matrix(-1 0 0 1 1035 354)" stroke="#00ADEE"/>
<circle opacity="0.45" r="699.5" transform="matrix(-1 0 0 1 1035 354)" stroke="#00ADEE"/>
<circle opacity="0.35" r="799.5" transform="matrix(-1 0 0 1 1035 354)" stroke="#00ADEE"/>
<circle opacity="0.25" r="899.5" transform="matrix(-1 0 0 1 1035 354)" stroke="#00ADEE"/>
<circle opacity="0.15" r="999.5" transform="matrix(-1 0 0 1 1035 354)" stroke="#00ADEE"/>
</g>
<g filter="url(#filter2_d)">
<circle r="200.5" transform="matrix(-1 0 0 1 1035 354)" stroke="#00ADEE" stroke-dasharray="8 8"/>
</g>
<g filter="url(#filter3_d)">
<circle r="300.5" transform="matrix(-1 0 0 1 1035 354)" stroke="#00ADEE" stroke-dasharray="8 8"/>
</g>
</g>
<defs>
<filter id="filter0_d" x="-4" y="0" width="1448" height="724" filterUnits="userSpaceOnUse" color-interpolation-filters="sRGB">
<feFlood flood-opacity="0" result="BackgroundImageFix"/>
<feColorMatrix in="SourceAlpha" type="matrix" values="0 0 0 0 0 0 0 0 0 0 0 0 0 0 0 0 0 0 127 0"/>
<feOffset dy="4"/>
<feGaussianBlur stdDeviation="2"/>
<feColorMatrix type="matrix" values="0 0 0 0 0 0 0 0 0 0 0 0 0 0 0 0 0 0 0.25 0"/>
<feBlend mode="normal" in2="BackgroundImageFix" result="effect1_dropShadow"/>
<feBlend mode="normal" in="SourceGraphic" in2="effect1_dropShadow" result="shape"/>
</filter>
<filter id="filter1_d" x="31" y="-646" width="2008" height="2008" filterUnits="userSpaceOnUse" color-interpolation-filters="sRGB">
<feFlood flood-opacity="0" result="BackgroundImageFix"/>
<feColorMatrix in="SourceAlpha" type="matrix" values="0 0 0 0 0 0 0 0 0 0 0 0 0 0 0 0 0 0 127 0"/>
<feOffset dy="4"/>
<feGaussianBlur stdDeviation="2"/>
<feColorMatrix type="matrix" values="0 0 0 0 0 0 0 0 0 0 0 0 0 0 0 0 0 0 0.25 0"/>
<feBlend mode="normal" in2="BackgroundImageFix" result="effect1_dropShadow"/>
<feBlend mode="normal" in="SourceGraphic" in2="effect1_dropShadow" result="shape"/>
</filter>
<filter id="filter2_d" x="830" y="153" width="410" height="410" filterUnits="userSpaceOnUse" color-interpolation-filters="sRGB">
<feFlood flood-opacity="0" result="BackgroundImageFix"/>
<feColorMatrix in="SourceAlpha" type="matrix" values="0 0 0 0 0 0 0 0 0 0 0 0 0 0 0 0 0 0 127 0"/>
<feOffset dy="4"/>
<feGaussianBlur stdDeviation="2"/>
<feColorMatrix type="matrix" values="0 0 0 0 0 0 0 0 0 0 0 0 0 0 0 0 0 0 0.25 0"/>
<feBlend mode="normal" in2="BackgroundImageFix" result="effect1_dropShadow"/>
<feBlend mode="normal" in="SourceGraphic" in2="effect1_dropShadow" result="shape"/>
</filter>
<filter id="filter3_d" x="730" y="53" width="610" height="610" filterUnits="userSpaceOnUse" color-interpolation-filters="sRGB">
<feFlood flood-opacity="0" result="BackgroundImageFix"/>
<feColorMatrix in="SourceAlpha" type="matrix" values="0 0 0 0 0 0 0 0 0 0 0 0 0 0 0 0 0 0 127 0"/>
<feOffset dy="4"/>
<feGaussianBlur stdDeviation="2"/>
<feColorMatrix type="matrix" values="0 0 0 0 0 0 0 0 0 0 0 0 0 0 0 0 0 0 0.25 0"/>
<feBlend mode="normal" in2="BackgroundImageFix" result="effect1_dropShadow"/>
<feBlend mode="normal" in="SourceGraphic" in2="effect1_dropShadow" result="shape"/>
</filter>
</defs>
</svg>
